<svg width="27" height="25" viewBox="0 0 27 25" fill="none" xmlns="http://www.w3.org/2000/svg">
<mask id="mask0_2111_3" style="mask-type:luminance" maskUnits="userSpaceOnUse" x="0" y="0" width="27" height="25">
<path d="M19.3333 0C17.0133 0 14.7867 1.08 13.3333 2.78667C11.88 1.08 9.65328 0 7.33333 0C3.22666 0 0 3.22667 0 7.3333C0 12.3733 4.53333 16.48 11.4 22.72L13.3333 24.4667L15.2667 22.7067C22.1333 16.48 26.6667 12.3733 26.6667 7.3333C26.6667 3.22667 23.44 0 19.3333 0ZM13.4667 20.7333L13.3333 20.8667L13.2 20.7333C6.85333 14.9867 2.66666 11.1867 2.66666 7.3333C2.66666 4.66667 4.66666 2.66667 7.33333 2.66667C9.38668 2.66667 11.3867 3.98667 12.0933 5.81333H14.5867C15.28 3.98667 17.28 2.66667 19.3333 2.66667C22 2.66667 24 4.66667 24 7.3333C24 11.1867 19.8134 14.9867 13.4667 20.7333Z" fill="white"/>
<path d="M16.1132 11.7755L13.0943 13L9.88679 11.7755L8.56604 10.9592L8 10.2245L8.37736 9.4898L9.50943 9.08163L10.6415 9L11.9623 9.08163L13.0943 9.40816L13.283 9.32653L14.0377 9.08163L15.1698 9L16.4906 9.08163L17.6226 9.4898L18 10.2245L17.6226 10.9592L16.1132 11.7755Z" stroke="white" stroke-width="12"/>
<rect x="16" y="2" width="9" height="7" rx="1" fill="white"/>
<rect x="2" y="2" width="9" height="7" rx="1" fill="white"/>
<rect x="9" y="14" width="8" height="7" rx="1" fill="white"/>
</mask>
<g mask="url(#mask0_2111_3)">
<path d="M18.0455 29.6431L19.9689 27.8922C19.9706 27.8906 19.9723 27.8891 19.9739 27.8876C20.0721 27.7986 20.1702 27.7097 20.2683 27.6207C23.4607 24.7265 26.637 21.8469 28.96 19.0068C31.436 15.9797 33.6667 12.1527 33.6667 7.3333C33.6667 -0.639406 27.3059 -7 19.3333 -7C17.2286 -7 15.1886 -6.54319 13.3333 -5.72006C11.4779 -6.5432 9.43799 -7 7.33333 -7C-0.639321 -7 -7 -0.639336 -7 7.3333C-7 12.1526 -4.76939 15.9792 -2.29486 19.0067C0.0203464 21.8392 3.185 24.7142 6.36736 27.6053C6.47565 27.7037 6.58396 27.8021 6.69227 27.9005L6.69975 27.9073L6.70725 27.9141L8.64055 29.6608L13.351 33.9166L18.0455 29.6431Z" fill="#002F52" stroke="#DC0404" stroke-width="14" stroke-miterlimit="1.40251"/>
</g>
</svg>
