<svg width="32" height="32" viewBox="0 0 32 32" fill="none" xmlns="http://www.w3.org/2000/svg">
<g clip-path="url(#clip0_504_3909)">
<path d="M23.9997 7.99996H21.333C21.333 5.05329 18.9463 2.66663 15.9997 2.66663C13.053 2.66663 10.6663 5.05329 10.6663 7.99996H7.99967C6.53301 7.99996 5.33301 9.19996 5.33301 10.6666V26.6666C5.33301 28.1333 6.53301 29.3333 7.99967 29.3333H23.9997C25.4663 29.3333 26.6663 28.1333 26.6663 26.6666V10.6666C26.6663 9.19996 25.4663 7.99996 23.9997 7.99996ZM15.9997 5.33329C17.4663 5.33329 18.6663 6.53329 18.6663 7.99996H13.333C13.333 6.53329 14.533 5.33329 15.9997 5.33329ZM23.9997 26.6666H7.99967V10.6666H10.6663V13.3333C10.6663 14.0666 11.2663 14.6666 11.9997 14.6666C12.733 14.6666 13.333 14.0666 13.333 13.3333V10.6666H18.6663V13.3333C18.6663 14.0666 19.2663 14.6666 19.9997 14.6666C20.733 14.6666 21.333 14.0666 21.333 13.3333V10.6666H23.9997V26.6666Z" fill="#002F52"/>
</g>
<defs>
<clipPath id="clip0_504_3909">
<rect width="32" height="32" fill="white"/>
</clipPath>
</defs>
</svg>
